<svg id="Layer_1" data-name="Layer 1" xmlns="http://www.w3.org/2000/svg" viewBox="0 0 122.88 81.09"><defs><style>.cls-1{fill-rule:evenodd;}</style></defs><title>business-decision-making</title><path class="cls-1" d="M22.33,81.09c.88-11.52-1.38-11,8.27-14.64,4.82-1.8,11-4.09,15.4-6.85l8.27,21.49ZM96.9,39.46l13,3.62,1.38-4.95a2.16,2.16,0,0,1,1.32-1.53c1.63-.53,2.65,1.11,3.37,2.25,2,3.23,5.39,10.2,6.48,11.83a2.1,2.1,0,0,1-.88,3.17c-1.83.85-8.69,5.31-12,6.92-1.14.56-2.68,1.23-3.72,0a2.17,2.17,0,0,1-.33-2l1.37-4.94-13-3.63,3-10.77ZM91.59,22.92l12.63-4.85,1.85,4.8a2.1,2.1,0,0,0,1.45,1.39c1.68.38,2.54-1.35,3.14-2.55C112.37,18.3,115.06,11,116,9.32a2.09,2.09,0,0,0-1.17-3.07c-1.9-.68-9.16-4.46-12.59-5.76-1.2-.45-2.79-1-3.71.33a2.14,2.14,0,0,0-.14,2l1.83,4.79L87.58,12.47l4,10.45Zm-66,16.18-12.91,4-1.54-4.9a2.16,2.16,0,0,0-1.36-1.49c-1.66-.48-2.62,1.19-3.3,2.35-1.92,3.3-5.06,10.37-6.1,12a2.09,2.09,0,0,0,1,3.14c1.85.79,8.85,5,12.2,6.54,1.17.53,2.72,1.14,3.72-.1a2.17,2.17,0,0,0,.27-2L16,53.82l12.91-4L25.57,39.1Zm5.62-16.18L18.56,18.07l-1.84,4.8a2.12,2.12,0,0,1-1.45,1.39c-1.69.38-2.54-1.35-3.15-2.55C10.41,18.3,7.73,11,6.79,9.32A2.09,2.09,0,0,1,8,6.25c1.9-.68,9.15-4.46,12.59-5.76,1.19-.45,2.78-1,3.7.33a2.16,2.16,0,0,1,.15,2L22.57,7.62,35.2,12.47l-4,10.45ZM63.71,68.69h1.15a1.91,1.91,0,0,0,1.9-1.9V63.72a1.9,1.9,0,0,0-1.9-1.89H58a1.89,1.89,0,0,0-1.89,1.89v3.07A1.9,1.9,0,0,0,58,68.69h1.17L57,80.11h8.94L63.71,68.69ZM51.73,52c.21-1.77-5-8.51-6-11.75C43.69,37,43,31.81,45.2,28.36c.89-1.38.51-3.82.51-5.7,0-18.78,32.9-18.79,32.9,0,0,2.37-.54,4.18.75,6,2.16,3.13,1,8.66-.78,11.56-1.16,3.4-6.67,9.83-6.29,11.76.34,9.64-20.62,9.32-20.56,0Zm25.54,6.6c4,2.59,9.77,4.71,14.35,6.24,9,3,9,3.42,8.92,16.24H68.72l8.55-22.48Z"/></svg>