<svg width="200" height="200" viewBox="0 0 200 200" fill="none" xmlns="http://www.w3.org/2000/svg">
<path d="M100 20C55.817 20 20 55.817 20 100C20 144.183 55.817 180 100 180C144.183 180 180 144.183 180 100C180 55.817 144.183 20 100 20ZM100 160C66.863 160 40 133.137 40 100C40 66.863 66.863 40 100 40C133.137 40 160 66.863 160 100C160 133.137 133.137 160 100 160Z" fill="#1F2937"/>
<path d="M100 60C77.909 60 60 77.909 60 100C60 122.091 77.909 140 100 140C122.091 140 140 122.091 140 100C140 77.909 122.091 60 100 60ZM100 120C88.954 120 80 111.046 80 100C80 88.954 88.954 80 100 80C111.046 80 120 88.954 120 100C120 111.046 111.046 120 100 120Z" fill="#1F2937"/>
<path d="M100 80C88.954 80 80 88.954 80 100C80 111.046 88.954 120 100 120C111.046 120 120 111.046 120 100C120 88.954 111.046 80 100 80ZM100 100C95.582 100 92 103.582 92 108C92 112.418 95.582 116 100 116C104.418 116 108 112.418 108 108C108 103.582 104.418 100 100 100Z" fill="#1F2937"/>
<path d="M100 40C66.863 40 40 66.863 40 100C40 133.137 66.863 160 100 160C133.137 160 160 133.137 160 100C160 66.863 133.137 40 100 40ZM100 140C77.909 140 60 122.091 60 100C60 77.909 77.909 60 100 60C122.091 60 140 77.909 140 100C140 122.091 122.091 140 100 140Z" fill="#1F2937"/>
<path d="M100 20C55.817 20 20 55.817 20 100C20 144.183 55.817 180 100 180C144.183 180 180 144.183 180 100C180 55.817 144.183 20 100 20ZM100 160C66.863 160 40 133.137 40 100C40 66.863 66.863 40 100 40C133.137 40 160 66.863 160 100C160 133.137 133.137 160 100 160Z" fill="#1F2937"/>
<path d="M100 60C77.909 60 60 77.909 60 100C60 122.091 77.909 140 100 140C122.091 140 140 122.091 140 100C140 77.909 122.091 60 100 60ZM100 120C88.954 120 80 111.046 80 100C80 88.954 88.954 80 100 80C111.046 80 120 88.954 120 100C120 111.046 111.046 120 100 120Z" fill="#1F2937"/>
<path d="M100 80C88.954 80 80 88.954 80 100C80 111.046 88.954 120 100 120C111.046 120 120 111.046 120 100C120 88.954 111.046 80 100 80ZM100 100C95.582 100 92 103.582 92 108C92 112.418 95.582 116 100 116C104.418 116 108 112.418 108 108C108 103.582 104.418 100 100 100Z" fill="#1F2937"/>
<path d="M100 40C66.863 40 40 66.863 40 100C40 133.137 66.863 160 100 160C133.137 160 160 133.137 160 100C160 66.863 133.137 40 100 40ZM100 140C77.909 140 60 122.091 60 100C60 77.909 77.909 60 100 60C122.091 60 140 77.909 140 100C140 122.091 122.091 140 100 140Z" fill="#1F2937"/>
</svg>
